<svg xmlns="http://www.w3.org/2000/svg" viewBox="0 0 24 24" aria-hidden="true">
<path fill="#1DA1F2" d="M23 4.58a9.4 9.4 0 0 1-2.7.76 4.72 4.72 0 0 0 2.07-2.6 9.28 9.28 0 0 1-2.99 1.16A4.66 4.66 0 0 0 16 2.5c-2.61 0-4.72 2.14-4.72 4.78 0 .37.04.74.12 1.09-3.92-.2-7.39-2.1-9.72-4.98a4.82 4.82 0 0 0-.64 2.4c0 1.66.83 3.12 2.09 3.98a4.63 4.63 0 0 1-2.14-.6v.06c0 2.32 1.63 4.25 3.8 4.69a4.56 4.56 0 0 1-2.13.08 4.71 4.71 0 0 0 4.4 3.28A9.35 9.35 0 0 1 1 19.32 13.18 13.18 0 0 0 8.23 21.5c8.67 0 13.41-7.28 13.41-13.6 0-.2 0-.41-.01-.61A9.68 9.68 0 0 0 23 4.58z"/>
</svg>
